<svg width="201" height="55" viewBox="0 0 201 55" fill="none" xmlns="http://www.w3.org/2000/svg">
<rect x="27.2173" width="38.4911" height="38.4911" transform="rotate(45 27.2173 0)" fill="white"/>
<path d="M44.4747 25.6684L41.4577 28.6844L41.8299 29.0565C42.0548 29.2811 42.2332 29.5478 42.3549 29.8414C42.4766 30.1349 42.5393 30.4496 42.5393 30.7674C42.5393 31.0852 42.4766 31.3999 42.3549 31.6935C42.2332 31.987 42.0548 32.2538 41.8299 32.4784L41.2659 33.0421C41.0445 33.2655 40.781 33.4428 40.4906 33.5638C40.2002 33.6847 39.8887 33.7469 39.5741 33.7468H39.4106C39.4284 34.0827 39.3759 34.4187 39.2565 34.7332C39.1371 35.0477 38.9533 35.3338 38.717 35.5733L38.1531 36.137C37.9316 36.3607 37.6681 36.5386 37.3779 36.6605C37.0876 36.7823 36.7761 36.8458 36.4613 36.8474C36.4068 36.8504 36.3522 36.8504 36.2977 36.8474C36.3247 37.1918 36.2767 37.538 36.1569 37.862C36.0372 38.1861 35.8486 38.4804 35.6041 38.7246L35.0402 39.2884C34.5921 39.7391 33.984 39.9944 33.3484 39.9987C33.2217 39.9939 33.0955 39.9807 32.9706 39.9592C32.9539 40.5942 32.6958 41.199 32.2488 41.6504L31.6848 42.2142C31.2342 42.6625 30.6286 42.9208 29.9931 42.9358H29.9423C29.638 42.9377 29.3364 42.8794 29.0547 42.7643C28.7731 42.6491 28.517 42.4794 28.3013 42.2649L28.087 42.0507L26.8351 43.2966C26.3171 43.8129 25.6154 44.1029 24.8839 44.1029C24.1524 44.1029 23.4507 43.8129 22.9327 43.2966L22.7071 43.0654C22.4154 42.7728 22.1938 42.4178 22.0591 42.0273C21.9243 41.6367 21.8798 41.2207 21.9289 40.8105C21.8237 40.816 21.7183 40.816 21.6131 40.8105C21.2506 40.8127 20.8913 40.7425 20.5562 40.6041C20.2212 40.4656 19.9171 40.2617 19.6619 40.0043L19.4364 39.7732C19.145 39.4805 18.924 39.1254 18.7901 38.7347C18.6563 38.344 18.6131 37.928 18.6638 37.5182C18.551 37.5182 18.4495 37.552 18.3423 37.552C17.6112 37.5503 16.9102 37.2606 16.3912 36.7459L16.1656 36.5148C15.8742 36.2218 15.6529 35.8669 15.5181 35.4764C15.3833 35.0859 15.3387 34.67 15.3874 34.2598C15.2803 34.2656 15.173 34.2656 15.0659 34.2598C14.7036 34.2604 14.3448 34.1895 14.0099 34.0512C13.6751 33.9129 13.3709 33.7098 13.1148 33.4536L12.8948 33.2338C12.6377 32.9781 12.4337 32.6742 12.2944 32.3395C12.1552 32.0047 12.0835 31.6458 12.0835 31.2832C12.0835 30.9207 12.1552 30.5618 12.2944 30.227C12.4337 29.8923 12.6377 29.5883 12.8948 29.3327L13.143 29.0734L9.7594 25.6909L27.1001 8.30518L44.4747 25.6684ZM40.5779 27.8275L42.7321 25.6684L29.9423 12.8602L22.0473 20.792C21.8384 21.2392 21.7931 21.7455 21.9191 22.2226C22.0452 22.6998 22.3347 23.1176 22.7373 23.4033C23.1398 23.6891 23.6299 23.8246 24.1221 23.7862C24.6143 23.7479 25.0775 23.5382 25.4309 23.1936L30.6754 17.8719L38.4689 25.6853L40.5779 27.8275ZM40.9727 31.6271C41.1945 31.4015 41.3188 31.0978 41.3188 30.7815C41.3188 30.4652 41.1945 30.1615 40.9727 29.9359L37.1944 26.1476L30.6641 19.5969L26.2542 24.0561C25.7869 24.5149 25.1942 24.825 24.5508 24.9474C23.9074 25.0699 23.2422 24.9991 22.639 24.744C22.0358 24.489 21.5217 24.061 21.1615 23.5142C20.8012 22.9674 20.6111 22.3262 20.615 21.6715C20.6164 21.1467 20.74 20.6294 20.9759 20.1606L21.0943 20.0084L29.0795 11.9977L27.1001 10.0189L11.4399 25.6684L13.9888 28.2447L14.3216 27.9121C14.5773 27.655 14.8813 27.4511 15.2162 27.3119C15.551 27.1727 15.9101 27.101 16.2727 27.101C16.6354 27.101 16.9945 27.1727 17.3293 27.3119C17.6642 27.4511 17.9682 27.655 18.2239 27.9121L18.4551 28.1376C18.7462 28.4307 18.9673 28.7857 19.102 29.1761C19.2368 29.5666 19.2817 29.9824 19.2333 30.3925C19.3394 30.3726 19.4469 30.3613 19.5548 30.3587C19.9171 30.3581 20.276 30.4289 20.6108 30.5673C20.9456 30.7056 21.2498 30.9087 21.506 31.1649L21.7315 31.396C22.0219 31.6894 22.2422 32.0446 22.376 32.4351C22.5098 32.8255 22.5536 33.2412 22.5041 33.651C22.9202 33.6021 23.3419 33.6483 23.7375 33.7859C24.1331 33.9236 24.4923 34.1493 24.788 34.4458L25.0136 34.677C25.3063 34.9689 25.5286 35.3237 25.6635 35.7145C25.7983 36.1053 25.8422 36.5216 25.7918 36.9319C26.2026 36.8831 26.6192 36.9283 27.0099 37.064C27.4007 37.1998 27.7555 37.4226 28.0475 37.7155L28.2787 37.9354C28.6817 38.3353 28.952 38.8495 29.0529 39.4081C29.1538 39.9668 29.0804 40.5429 28.8426 41.0585L29.181 41.3967C29.286 41.5026 29.412 41.5853 29.5509 41.6397C29.6897 41.694 29.8384 41.7188 29.9874 41.7124C30.3073 41.7043 30.6112 41.5707 30.8333 41.3404L31.3972 40.7766C31.6269 40.5518 31.7604 40.2466 31.7694 39.9254C31.7744 39.7766 31.749 39.6284 31.6947 39.4897C31.6404 39.3511 31.5584 39.225 31.4536 39.1192L29.2825 36.9545L27.6076 35.3083L28.4479 34.4458L30.478 36.4753L30.5119 36.4415L32.4743 38.392C32.7 38.6137 33.0038 38.738 33.3202 38.738C33.6366 38.738 33.9404 38.6137 34.1661 38.392L34.73 37.8283C34.9536 37.5979 35.0787 37.2895 35.0787 36.9686C35.0787 36.6476 34.9536 36.3392 34.73 36.1089L31.4987 32.8843L30.9348 32.3205L31.7976 31.4636L35.5703 35.2407C35.7993 35.4559 36.1018 35.5758 36.4162 35.5758C36.7305 35.5758 37.033 35.4559 37.2621 35.2407L37.826 34.677C38.0478 34.4513 38.1721 34.1477 38.1721 33.8313C38.1721 33.515 38.0478 33.2113 37.826 32.9857L34.0138 29.1749L33.8841 29.0452L34.7639 28.2447L38.7113 32.1909C38.9377 32.4113 39.2412 32.5346 39.5572 32.5346C39.8732 32.5346 40.1767 32.4113 40.4031 32.1909L40.9727 31.6271ZM27.4385 40.9852C27.7281 40.6937 27.8906 40.2996 27.8906 39.8887C27.8906 39.4779 27.7281 39.0837 27.4385 38.7923L27.2129 38.5668C26.9223 38.2776 26.5289 38.1153 26.1189 38.1153C25.7088 38.1153 25.3155 38.2776 25.0249 38.5668L23.5812 40.0156C23.2933 40.3068 23.1319 40.6998 23.1319 41.1092C23.1319 41.5187 23.2933 41.9117 23.5812 42.2029L23.8068 42.434C24.0998 42.7208 24.4935 42.8815 24.9036 42.8815C25.3137 42.8815 25.7075 42.7208 26.0005 42.434L27.4385 40.9852ZM24.1621 37.7099C24.3066 37.5668 24.4214 37.3964 24.4998 37.2087C24.5781 37.021 24.6184 36.8196 24.6184 36.6162C24.6184 36.4128 24.5781 36.2115 24.4998 36.0237C24.4214 35.836 24.3066 35.6657 24.1621 35.5226L23.9421 35.2971C23.7986 35.1532 23.6281 35.0391 23.4404 34.9612C23.2526 34.8833 23.0514 34.8432 22.8481 34.8432C22.6449 34.8432 22.4436 34.8833 22.2559 34.9612C22.0681 35.0391 21.8976 35.1532 21.7541 35.2971L20.2766 36.7402C20.1291 36.8846 20.0119 37.0569 19.9319 37.2472C19.8519 37.4374 19.8107 37.6417 19.8107 37.848C19.8107 38.0543 19.8519 38.2586 19.9319 38.4488C20.0119 38.6391 20.1291 38.8114 20.2766 38.9557L20.5078 39.1756C20.7984 39.4648 21.1918 39.6271 21.6018 39.6271C22.0119 39.6271 22.4052 39.4648 22.6959 39.1756L24.1395 37.7381L24.1621 37.7099ZM20.8744 34.4458C21.1623 34.1546 21.3237 33.7616 21.3237 33.3522C21.3237 32.9427 21.1623 32.5498 20.8744 32.2585L20.6432 32.0387C20.5015 31.8937 20.3322 31.7786 20.1452 31.7002C19.9583 31.6217 19.7575 31.5816 19.5548 31.582C19.3507 31.5806 19.1484 31.6197 18.9597 31.6972C18.7709 31.7746 18.5994 31.8887 18.4551 32.033L17.0058 33.4593C16.7179 33.7505 16.5565 34.1435 16.5565 34.5529C16.5565 34.9624 16.7179 35.3553 17.0058 35.6466L17.2371 35.8721C17.3802 36.0166 17.5506 36.1314 17.7384 36.2097C17.9262 36.288 18.1276 36.3283 18.3311 36.3283C18.5345 36.3283 18.736 36.288 18.9238 36.2097C19.1115 36.1314 19.2819 36.0166 19.4251 35.8721L20.8744 34.4458ZM17.6036 31.1761C17.8915 30.8849 18.053 30.4919 18.053 30.0825C18.053 29.673 17.8915 29.2801 17.6036 28.9888L17.3724 28.7577C17.2238 28.6118 17.0474 28.4972 16.8536 28.4207C16.6599 28.3442 16.4528 28.3073 16.2445 28.3123C15.8371 28.3109 15.4457 28.4711 15.1562 28.7577L13.7351 30.1896C13.4458 30.4801 13.2834 30.8733 13.2834 31.2832C13.2834 31.6931 13.4458 32.0864 13.7351 32.3769L13.9606 32.608C14.252 32.8958 14.6451 33.0572 15.0547 33.0572C15.4643 33.0572 15.8573 32.8958 16.1487 32.608L17.5923 31.1592L17.6036 31.1761Z" fill="#307FE2"/>
<path d="M63.6163 21.0644C63.6163 11.5137 78.0448 11.5137 78.0448 21.0644C78.0448 30.615 63.6163 30.6335 63.6163 21.0644ZM74.3657 21.0644C74.4011 20.5883 74.3362 20.1102 74.1751 19.6599C74.0139 19.2096 73.76 18.7968 73.4291 18.4472C73.0982 18.0977 72.6976 17.8188 72.2521 17.6282C71.8066 17.4375 71.3259 17.3391 70.84 17.3391C70.354 17.3391 69.8733 17.4375 69.4278 17.6282C68.9823 17.8188 68.5817 18.0977 68.2508 18.4472C67.9199 18.7968 67.666 19.2096 67.5049 19.6599C67.3437 20.1102 67.2788 20.5883 67.3142 21.0644C67.3142 26.0732 74.3657 26.0732 74.3657 21.0644Z" fill="white"/>
<path d="M87.1749 13.9014C90.061 13.9014 93.1891 15.487 93.7291 19.2325H90.2223C90.0259 18.59 89.616 18.0347 89.0613 17.6597C88.5066 17.2848 87.8406 17.1127 87.1749 17.1725C85.0832 17.1725 83.7054 18.7518 83.7054 21.0803C83.7054 23.1404 85.0646 24.9445 87.1749 24.9694C87.8751 25.0222 88.5713 24.8234 89.1395 24.4085C89.7077 23.9936 90.1112 23.3894 90.2782 22.7034H93.7849C93.2636 26.6736 90.1354 28.2343 87.1687 28.2343C83.6185 28.2343 80.031 25.8496 80.0124 21.0803C79.9938 16.311 83.6247 13.9014 87.1749 13.9014Z" fill="white"/>
<path d="M105.837 20.7843C106.376 21.0524 106.825 21.472 107.13 21.9919C107.435 22.5118 107.582 23.1095 107.554 23.712C107.554 26.2123 106.022 28.2343 103.103 28.2343H96.4083V13.9019H102.512C103.094 13.8926 103.672 13.9996 104.212 14.2167C104.752 14.4338 105.243 14.7566 105.657 15.1663C106.072 15.576 106.401 16.0644 106.625 16.6029C106.849 17.1415 106.964 17.7194 106.963 18.3031C106.954 18.7718 106.85 19.2338 106.656 19.6606C106.463 20.0873 106.184 20.4697 105.837 20.7843ZM99.9371 17.1804V19.4958H102.245C103.695 19.4958 103.695 17.1804 102.245 17.1804H99.9371ZM99.9371 22.5447V24.9813H102.855C104.324 24.9813 104.305 22.5447 102.855 22.5447H99.9371Z" fill="white"/>
<path d="M109.525 21.0644C109.525 11.5137 123.954 11.5137 123.954 21.0644C123.954 30.615 109.525 30.6335 109.525 21.0644ZM120.303 21.0644C120.338 20.5883 120.273 20.1102 120.111 19.6599C119.95 19.2096 119.695 18.7968 119.364 18.4472C119.032 18.0977 118.63 17.8188 118.183 17.6282C117.737 17.4375 117.255 17.3391 116.768 17.3391C116.28 17.3391 115.798 17.4375 115.352 17.6282C114.905 17.8188 114.503 18.0977 114.172 18.4472C113.84 18.7968 113.585 19.2096 113.424 19.6599C113.262 20.1102 113.197 20.5883 113.233 21.0644C113.233 26.0732 120.303 26.0732 120.303 21.0644Z" fill="white"/>
<path d="M133.08 18.9214C140.149 18.9214 140.149 28.2151 133.08 28.2343H126.577V13.9014H137.197V17.18H130.352V18.9214H133.08ZM130.352 22.1554V24.962H133.054C133.256 24.9807 133.459 24.9583 133.651 24.8962C133.843 24.8342 134.02 24.7339 134.17 24.6018C134.32 24.4697 134.439 24.3086 134.521 24.129C134.603 23.9494 134.645 23.7551 134.645 23.5587C134.645 23.3623 134.603 23.168 134.521 22.9884C134.439 22.8088 134.32 22.6477 134.17 22.5156C134.02 22.3835 133.843 22.2832 133.651 22.2212C133.459 22.1591 133.256 22.1367 133.054 22.1554H130.352Z" fill="white"/>
<path d="M140.35 21.0644C140.35 11.5137 154.122 11.5137 154.122 21.0644C154.122 30.615 140.35 30.6335 140.35 21.0644ZM150.609 21.0644C150.648 20.5855 150.59 20.1034 150.439 19.6486C150.288 19.1939 150.047 18.7764 149.73 18.4226C149.414 18.0687 149.03 17.7863 148.602 17.593C148.174 17.3998 147.712 17.3 147.245 17.3C146.778 17.3 146.316 17.3998 145.888 17.593C145.46 17.7863 145.076 18.0687 144.759 18.4226C144.443 18.7764 144.202 19.1939 144.051 19.6486C143.899 20.1034 143.842 20.5855 143.881 21.0644C143.881 26.0732 150.609 26.0732 150.609 21.0644Z" fill="white"/>
<path d="M158.419 29.5373H155.434V24.8959H156.876L161.759 13.9014H163.322L168.382 24.8959H169.862V29.5373H166.82V28.0108H158.407L158.419 29.5373ZM160.532 24.8527H164.555L162.506 19.8344L160.532 24.8527Z" fill="white"/>
<path d="M172.495 28.2343H171.174V13.9648H174.956V20.9379L182.282 13.9014H183.635V28.2089H179.769V21.2358L172.495 28.2343Z" fill="white"/>
<path d="M199.393 13.9014H200.687V28.2343H196.994V21.8726L193.992 25.0534H193.59L190.607 21.8726V28.2343H186.914V13.9014H188.245L193.772 20.1104L199.393 13.9014Z" fill="white"/>
<path d="M65.1145 35.8453H65.6994C65.8798 35.2975 66.2271 34.8184 66.6938 34.4738C67.0714 34.23 67.5122 34.0994 67.963 34.0977C68.4085 34.1218 68.8377 34.2714 69.2 34.5289C69.5624 34.7864 69.8428 35.141 70.0082 35.551C70.1735 35.9609 70.217 36.4091 70.1334 36.8427C70.0498 37.2762 69.8427 37.6771 69.5364 37.9981C69.3296 38.2113 69.0805 38.3799 68.8047 38.4934C68.5289 38.6069 68.2324 38.6629 67.9338 38.6578C67.3796 38.6597 66.8428 38.4669 66.4189 38.1138C66.195 37.937 66.0119 37.7149 65.8818 37.4624C65.7517 37.2099 65.6775 36.9328 65.6644 36.6497H65.0794V38.5479H64.2723V34.2076H65.1028L65.1145 35.8453ZM69.3844 36.3835C69.3866 35.9992 69.2401 35.6285 68.9749 35.3477C68.8448 35.2046 68.6848 35.0913 68.5061 35.0153C68.3273 34.9394 68.1341 34.9027 67.9396 34.9078C67.7513 34.905 67.5643 34.9393 67.3895 35.0089C67.2147 35.0784 67.0558 35.1818 66.9219 35.3129C66.7814 35.4545 66.6715 35.6231 66.5991 35.8081C66.5267 35.9932 66.4932 36.191 66.5008 36.3893C66.4921 36.5871 66.5262 36.7844 66.6008 36.968C66.6755 37.1517 66.7889 37.3174 66.9336 37.4541C67.2055 37.7168 67.5713 37.8624 67.9513 37.8592C68.139 37.8605 68.3248 37.823 68.497 37.7493C68.6692 37.6756 68.824 37.5671 68.9515 37.431C69.0908 37.2939 69.2009 37.1306 69.2753 36.9507C69.3496 36.7707 69.3867 36.5779 69.3844 36.3835Z" fill="white"/>
<path d="M72.1423 34.1024H73.036C73.3878 34.0821 73.7402 34.1274 74.0765 34.236C74.2871 34.3263 74.4643 34.4838 74.5821 34.6855C74.7088 34.9078 74.772 35.1626 74.7644 35.4205C74.7774 35.7068 74.692 35.9887 74.5234 36.2162C74.3577 36.4328 74.1288 36.5883 73.8708 36.6597C73.578 36.7145 73.2804 36.7369 72.983 36.7265V38.6581H72.1423V34.1024ZM72.9654 35.8578H73.2358C73.3824 35.8645 73.5291 35.8482 73.6709 35.8093C73.7501 35.7822 73.8183 35.7288 73.8649 35.6574C73.9135 35.5797 73.9381 35.4886 73.9355 35.3962C73.9406 35.3194 73.9245 35.2427 73.8891 35.175C73.8537 35.1072 73.8005 35.0512 73.7356 35.0135C73.5673 34.9377 73.3835 34.9064 73.2006 34.9224H72.9654V35.8578Z" fill="white"/>
<path d="M80.6683 34.0977V38.6581H79.811V35.8002L78.1325 38.6581H77.3891V34.0977H78.2703V37.0711L79.9729 34.122L80.6683 34.0977Z" fill="white"/>
<path d="M84.8952 34.0977H85.6035L86.7938 37.3529H87.2267V38.6581H86.5429V38.061H84.0048V38.6581H83.2916V37.3529H83.6999L84.8952 34.0977ZM85.2542 35.1545L84.4475 37.3582H86.0609L85.2542 35.1545Z" fill="white"/>
<path d="M92.4734 34.0977V38.6581H91.6098V35.8002L89.9189 38.6581H89.1942V34.0977H90.0578V37.0711L91.7729 34.122L92.4734 34.0977Z" fill="white"/>
<path d="M96.8005 36.6576H96.5002C96.1796 36.6684 95.8588 36.6459 95.5431 36.5907C95.3284 36.5438 95.1273 36.4503 94.9551 36.3171C94.7761 36.1831 94.6377 36.0045 94.5547 35.8002C94.4713 35.5407 94.4332 35.2694 94.4421 34.9976V34.0977H95.3492V34.9854C95.3254 35.2148 95.3852 35.4451 95.5181 35.6361C95.7315 35.7855 95.9953 35.8507 96.2562 35.8185H96.8005V34.0977H97.7201V38.6581H96.8255L96.8005 36.6576Z" fill="white"/>
<path d="M100.343 34.0977H102.967V34.9406H101.248V35.7654H102.967V36.5962H101.248V37.8091H102.967V38.6581H100.343V34.0977Z" fill="white"/>
<path d="M108.869 34.962L108.331 35.5383C108.178 35.3468 107.988 35.1923 107.775 35.0851C107.561 34.9778 107.329 34.9201 107.094 34.9159C106.912 34.9105 106.732 34.9457 106.565 35.0191C106.397 35.0925 106.245 35.2026 106.12 35.3423C105.99 35.4778 105.888 35.6403 105.819 35.8197C105.751 35.9991 105.718 36.1916 105.721 36.3853C105.717 36.6531 105.778 36.9174 105.899 37.1518C106.014 37.3752 106.185 37.5591 106.394 37.6819C106.613 37.8101 106.86 37.8756 107.11 37.8721C107.319 37.8739 107.526 37.8287 107.718 37.7395C107.947 37.6145 108.154 37.4489 108.331 37.2497L108.869 37.826C108.627 38.0961 108.341 38.3167 108.024 38.4771C107.736 38.6023 107.426 38.6631 107.115 38.6558C106.824 38.6701 106.533 38.6191 106.262 38.506C105.99 38.3928 105.744 38.2201 105.538 37.9988C105.338 37.7851 105.181 37.5294 105.078 37.2478C104.974 36.9663 104.926 36.6648 104.936 36.3623C104.929 35.9587 105.023 35.5605 105.21 35.2098C105.397 34.8699 105.667 34.5909 105.99 34.4031C106.319 34.2042 106.689 34.099 107.067 34.0977C107.401 34.0979 107.731 34.1752 108.034 34.3244C108.338 34.4735 108.608 34.691 108.826 34.962H108.869Z" fill="white"/>
<path d="M111.493 34.0977H112.369V35.6665L113.571 34.0977H114.598L113.024 36.1347L114.772 38.6581H113.751L112.369 36.6333V38.6581H111.499L111.493 34.0977Z" fill="white"/>
<path d="M117.925 34.0977H118.846L120.674 38.6581H119.734L119.36 37.7217H117.417L117.036 38.6581H116.083L117.925 34.0977ZM118.388 35.3138L117.753 36.8765H119.023L118.388 35.3138Z" fill="white"/>
<path d="M125.921 34.0977V38.6581H124.956V36.8339H124.713L123.695 38.6581H122.642L123.789 36.6819C123.486 36.6249 123.217 36.4695 123.033 36.2452C122.849 36.021 122.762 35.7436 122.79 35.4658C122.784 35.2588 122.821 35.0527 122.898 34.8577C122.967 34.7088 123.071 34.5752 123.202 34.466C123.334 34.3568 123.49 34.2747 123.661 34.2253C123.792 34.1804 123.927 34.1478 124.066 34.1281H124.909L125.921 34.0977ZM124.956 35.9766V34.9429H124.693C124.519 34.9384 124.344 34.9527 124.174 34.9854C124.068 35.008 123.976 35.0669 123.917 35.1496C123.847 35.2449 123.812 35.3576 123.816 35.4719C123.808 35.5465 123.821 35.6218 123.856 35.6902C123.89 35.7585 123.944 35.8175 124.012 35.861C124.21 35.9516 124.431 35.9916 124.653 35.9766H124.956Z" fill="white"/>
<path d="M131.197 34.0977H132.236V35.6665L133.68 34.0977H134.915L133.023 36.1347L135.103 38.6581H133.875L132.208 36.6333V38.6581H131.168L131.197 34.0977Z" fill="white"/>
<path d="M139.39 34.0977C139.688 34.0953 139.984 34.153 140.258 34.2673C140.533 34.3815 140.78 34.5498 140.986 34.7619C141.204 34.9735 141.376 35.2264 141.492 35.5053C141.608 35.7842 141.666 36.0834 141.661 36.3848C141.665 36.6835 141.608 36.98 141.492 37.2561C141.376 37.5322 141.204 37.782 140.986 37.9903C140.772 38.202 140.518 38.3699 140.238 38.4845C139.958 38.5991 139.658 38.6581 139.355 38.6581C139.052 38.6581 138.752 38.5991 138.472 38.4845C138.192 38.3699 137.938 38.202 137.724 37.9903C137.374 37.6309 137.151 37.1696 137.088 36.6753C137.026 36.1809 137.127 35.6799 137.378 35.247C137.575 34.9006 137.865 34.6147 138.217 34.4211C138.57 34.2073 138.976 34.0953 139.39 34.0977ZM139.39 34.9063C139.198 34.902 139.008 34.9367 138.83 35.0083C138.652 35.0798 138.492 35.1866 138.358 35.3221C138.22 35.4628 138.112 35.6293 138.04 35.8118C137.968 35.9944 137.935 36.1892 137.941 36.3848C137.929 36.6048 137.971 36.8245 138.063 37.0254C138.155 37.2264 138.294 37.4028 138.469 37.5398C138.73 37.7563 139.061 37.8732 139.402 37.869C139.592 37.8719 139.781 37.8353 139.956 37.7617C140.131 37.6881 140.288 37.579 140.417 37.4417C140.688 37.1588 140.838 36.7849 140.838 36.3963C140.838 36.0078 140.688 35.6338 140.417 35.351C140.287 35.2092 140.127 35.0962 139.949 35.0195C139.771 34.9429 139.579 34.9043 139.385 34.9063H139.39Z" fill="white"/>
<path d="M144.416 34.0977H145.244L146.273 37.2778L147.308 34.0977H148.13L148.876 38.6581H148.059L147.586 35.7759L146.64 38.6581H145.894L144.96 35.7759L144.475 38.6581H143.629L144.416 34.0977Z" fill="white"/>
<path d="M150.843 34.0977H154.778V38.6581H153.729V34.9064H151.9V38.6581H150.843V34.0977Z" fill="white"/>
<path d="M158.343 34.0977H159.11L160.681 38.6581H159.871L159.55 37.7217H157.887L157.555 38.6581H156.745L158.343 34.0977ZM158.74 35.3138L158.197 36.8765H159.284L158.74 35.3138Z" fill="white"/>
<path d="M162.648 34.0977H163.707V35.8185H165.532V34.0977H166.583V38.6581H165.532V36.6576H163.707V38.6581H162.648V34.0977Z" fill="white"/>
<path d="M172.486 34.0977V38.6581H171.634V35.8002L169.956 38.6581H169.207V34.0977H170.064V37.0711L171.766 34.122L172.486 34.0977Z" fill="white"/>
<path d="M177.076 34.1098V38.6581H176.305V36.8388H176.11L175.295 38.6581H174.453L175.371 36.6872C175.129 36.6302 174.914 36.475 174.768 36.2512C174.621 36.0274 174.553 35.7507 174.577 35.4743C174.571 35.2683 174.598 35.0627 174.658 34.8678C174.708 34.7099 174.789 34.5668 174.896 34.4494C174.999 34.3368 175.122 34.25 175.257 34.1947C175.364 34.1505 175.474 34.118 175.587 34.0977H176.256L177.076 34.1098ZM176.305 35.9837V34.9527H176.094C175.955 34.9487 175.815 34.963 175.678 34.9952C175.594 35.0189 175.521 35.0773 175.473 35.1589C175.417 35.2539 175.389 35.3663 175.392 35.4804C175.385 35.5555 175.396 35.6315 175.425 35.6999C175.453 35.7684 175.498 35.8267 175.554 35.8685C175.71 35.9595 175.886 35.9995 176.062 35.9837H176.305Z" fill="white"/>
</svg>
